<?xml version="1.0" encoding="UTF-8"?>
<!DOCTYPE svg PUBLIC "-//W3C//DTD SVG 1.1//EN" "http://www.w3.org/Graphics/SVG/1.1/DTD/svg11.dtd">
<!-- Creator: CorelDRAW 2020 (64-Bit) -->
<svg xmlns="http://www.w3.org/2000/svg" xml:space="preserve" width="516px" height="556px" version="1.1" style="shape-rendering:geometricPrecision; text-rendering:geometricPrecision; image-rendering:optimizeQuality; fill-rule:evenodd; clip-rule:evenodd"
viewBox="0 0 126.79 136.42"
 xmlns:xlink="http://www.w3.org/1999/xlink"
 xmlns:xodm="http://www.corel.com/coreldraw/odm/2003">
 <defs>
  <style type="text/css">
   <![CDATA[
    .fil0 {fill:black}
   ]]>
  </style>
 </defs>
 <g id="Capa_x0020_1">
  <metadata id="CorelCorpID_0Corel-Layer"/>
  <g id="_2093154178304">
   <path class="fil0" d="M26.46 19.38c5.07,-1.21 27.88,-19.35 58.85,1.31 12.86,8.57 14.41,33.13 -3.02,44.81 -3.16,2.12 -3.7,1.65 -6.23,4.73 16.7,1.7 8.89,1.2 22.66,7.68 0.08,-4.76 -1.89,-7.34 -1.76,-14.77 23.15,-18.39 16.76,-43.82 -4.78,-56.16 -10.91,-6.24 -22.2,-8.54 -37.87,-5.91 -7.88,1.33 -18.06,6.23 -22.66,10.91 -3.5,3.56 -3.93,3.7 -5.19,7.4z"/>
   <path class="fil0" d="M49.09 109.62c-2.59,3.09 -7.8,6.21 -10.52,10.76 -2.74,4.57 -5.02,9.35 -4.57,15.82l58.79 0.03c0.47,-11.71 -9,-23.79 -16.62,-26.41 -13.47,11.05 -21.24,1.55 -27.08,-0.2z"/>
   <path class="fil0" d="M32.77 70.12c-3.16,-4.7 0.36,-4.23 -5.42,-9.26 -2.85,-2.49 -5.02,-4.09 -6.72,-8.06 -9.83,-22.93 25.59,-41.29 50.19,-31.45 15.48,6.19 24.17,22.11 9.17,35.95 -8.61,7.95 -20.78,11.39 -33.41,10.77 -8.5,-0.43 -7.86,0.28 -13.81,2.05zm-5.01 -4.1c0.22,7.25 -0.66,6 -1.76,11.53 3.14,-0.79 6.15,-3.38 10.99,-5.04 7.18,-2.48 23.41,3.78 41.48,-8.86 23.03,-16.12 15.98,-49.79 -26.99,-48.69 -8.76,0.22 -19.46,5.13 -24.52,9.09 -15.51,12.12 -16.85,28.96 0.8,41.97z"/>
   <path class="fil0" d="M49.79 101.77c0.72,2.13 4.81,6.44 6.98,7.53 3.8,1.91 7.98,2.09 11.83,0.66 6.16,-2.26 11.34,-9.68 8.22,-18.71 -5.83,-16.82 -33.59,-8.84 -27.03,10.52z"/>
   <path class="fil0" d="M123.52 121.47c-2.39,-3.63 -4.69,-6.37 -8.89,-7.92 -18.25,9.66 -17.87,-2.7 -23.28,0.48 -3.07,1.8 1.88,6.37 3.17,9.8 1.58,4.17 2.21,7.68 2.58,12.39l29.42 0.17c0.77,-6.43 -0.09,-10.51 -3,-14.92z"/>
   <path class="fil0" d="M29.75 136.42c0.18,-4.66 1.01,-8.31 2.57,-12.43 1.48,-3.91 7.87,-12.39 0.17,-9.82 -2.7,0.89 -6.59,5.46 -15.07,2.01 -3.79,-1.53 -2.33,-1.44 -5.36,-2.65 -7.29,3.46 -13,10.82 -11.93,22.85l29.62 0.04z"/>
   <path class="fil0" d="M93.1 105.71c0.92,3.85 7.87,9.37 14,7.27 5.4,-1.85 8.89,-6.62 7.5,-14.11 -2.39,-12.95 -25.56,-10.23 -21.5,6.84z"/>
   <path class="fil0" d="M33.71 106.84c0.26,-8.12 -0.03,-13.42 -7.27,-15.54 -14.69,-4.31 -20.87,16.43 -6.84,21.67 7,2.62 11.12,-3.14 14.11,-6.13z"/>
  </g>
 </g>
</svg>
