<?xml version="1.0" encoding="UTF-8"?>
<!DOCTYPE svg PUBLIC "-//W3C//DTD SVG 1.1//EN" "http://www.w3.org/Graphics/SVG/1.1/DTD/svg11.dtd">
<!-- Creator: CorelDRAW 2020 (64-Bit) -->
<svg xmlns="http://www.w3.org/2000/svg" xml:space="preserve" width="300px" height="268px" version="1.1" style="shape-rendering:geometricPrecision; text-rendering:geometricPrecision; image-rendering:optimizeQuality; fill-rule:evenodd; clip-rule:evenodd"
viewBox="0 0 41.71 37.2"
 xmlns:xlink="http://www.w3.org/1999/xlink"
 xmlns:xodm="http://www.corel.com/coreldraw/odm/2003">
 <defs>
  <style type="text/css">
   <![CDATA[
    .fil0 {fill:black}
    .fil4 {fill:#4D4D4D}
    .fil3 {fill:#9F9F9F}
    .fil2 {fill:#AAAAAA}
    .fil1 {fill:white}
   ]]>
  </style>
 </defs>
 <g id="Capa_x0020_1">
  <metadata id="CorelCorpID_0Corel-Layer"/>
  <g id="_2093353950624">
   <path class="fil0" d="M17.51 24.38l0.16 -2.7c-4.45,0.4 -3.86,-1.16 -4.89,-2.61 -0.74,-1.07 -0.95,-0.4 -1.3,-1.43 2.99,-0.82 2.28,3.61 5.92,2.33 0.49,-0.29 0.47,-0.79 1.01,-1.87 -5.65,-0.27 -6.7,-5.82 -4.84,-8.86 1.05,-1.7 -0.47,-1.54 0.69,-4.1 1.56,0.09 1.78,0.52 2.96,1.05 0.94,0.42 2.37,-0.15 3.61,-0.15 1.23,0 2.73,0.56 3.64,0.18 0.94,-0.39 1.94,-1.33 2.99,-0.93 1.07,1.65 -0.22,2.45 0.68,3.89 1.72,2.79 1.15,8.56 -4.85,8.94 1.29,2.53 0.19,4.34 0.89,6.23 2.04,0.92 10.38,-4.48 9.19,-13.53 -0.77,-5.9 -6.01,-10.82 -12.54,-10.82 -10.28,0 -16.27,11.53 -10.31,19.96 0.85,1.2 4.77,5.21 6.99,4.42z"/>
   <path class="fil0" d="M8.14 36.47l0 -5.68 -3.78 0.01 0 1.96 1.52 0.04 0.02 2.11c-3.07,0.56 -3.8,-1.2 -3.56,-4.01 0.27,-3.22 2.18,-2.88 5,-2.5 0.12,-0.9 0.36,-1.05 0.21,-2.02 -5.12,-1.27 -7.7,0.5 -7.54,5.67 0.15,5.08 3.79,5.94 8.13,4.42z"/>
   <path class="fil0" d="M20.53 36.83l0.16 -4.47c0.59,-0.05 1.15,-0.05 1.74,-0.06 0.82,0 1.06,-0.18 1.34,0.32l0.01 4.33 2.3 -0.01 -0.02 -10.53 -2.23 -0.05 -0.06 3.76c-0.4,0.43 0.39,0.15 -0.65,0.32l-2.51 -0.07 -0.1 -3.97 -2.05 0.01 -0.06 9.76c0.06,0.7 -0.02,0.69 0.63,0.81 0.46,0.07 1.2,-0.03 1.5,-0.15z"/>
   <path class="fil0" d="M37.03 31.61c0.84,-0.26 1.82,-0.57 2.22,0.52 0.05,0.13 0.93,3.39 -1.29,3.21 -1.26,-0.1 -1.26,-0.96 -0.93,-3.73zm-2.29 5.34l1.49 -0.18c0.04,-0.01 0.1,-0.05 0.14,-0.06 0.87,-0.27 -0.55,-0.15 0.33,-0.08 0.42,0.03 4.1,2.08 4.83,-1.94 0.71,-3.91 -0.75,-5.92 -4.49,-4.72l-0.02 -3.56 -2.23 -0.05 -0.05 10.59z"/>
   <path class="fil0" d="M31.85 36.66l0.24 -0.29 0.27 0.45 1.17 0.15c0.38,-0.8 0.16,-5.95 0.15,-7.21l-2.2 0c-0.08,4.92 0.66,6.01 -1.93,5.44 -0.41,-1.07 -0.22,-3.96 -0.25,-5.44l-2.25 0.02c-0.14,4.56 -0.95,8.99 4.8,6.88z"/>
   <path class="fil0" d="M13.49 29.76c-1.03,0.48 -1.15,-0.25 -1.15,1.86 1.23,0 0.87,-0.23 1.17,0.42 0,3.34 -0.39,5.79 3.81,4.95 0.38,-2.46 -0.19,-1.38 -0.99,-1.78 -0.86,-0.43 -0.57,-1.49 -0.52,-3.6l1.59 0.01 0 -1.87 -1.61 0 0 -2.06 -2.28 0 -0.02 2.07z"/>
   <polygon class="fil0" points="9.32,36.95 11.56,36.96 11.56,29.99 11.56,29.74 9.33,29.74 "/>
   <path class="fil1" d="M37.03 31.61c-0.33,2.77 -0.33,3.63 0.93,3.73 2.22,0.18 1.34,-3.08 1.29,-3.21 -0.4,-1.09 -1.38,-0.78 -2.22,-0.52z"/>
   <path class="fil0" d="M11.48 26.97c-1.56,-0.79 -2.88,0.32 -2.07,1.61 0.59,0.94 2.8,0.93 2.07,-1.61z"/>
   <path class="fil2" d="M23.77 30.12l-3 0.07c0.02,-0.98 0.37,-3.13 -0.26,-3.79l0.1 3.97 2.51 0.07c1.04,-0.17 0.25,0.11 0.65,-0.32z"/>
   <path class="fil3" d="M20.53 36.83c0.44,-0.34 0.24,-0.79 0.23,-2.04 0,-0.75 0.01,-1.49 -0.01,-2.23l3.02 0.06c-0.28,-0.5 -0.52,-0.32 -1.34,-0.32 -0.59,0.01 -1.15,0.01 -1.74,0.06l-0.16 4.47z"/>
   <polygon class="fil4" points="32.36,36.82 32.09,36.37 31.85,36.66 "/>
  </g>
 </g>
</svg>
