<?xml version="1.0" encoding="UTF-8"?>
<!DOCTYPE svg PUBLIC "-//W3C//DTD SVG 1.1//EN" "http://www.w3.org/Graphics/SVG/1.1/DTD/svg11.dtd">
<!-- Creator: CorelDRAW 2020 (64-Bit) -->
<svg xmlns="http://www.w3.org/2000/svg" xml:space="preserve" width="853px" height="669px" version="1.1" style="shape-rendering:geometricPrecision; text-rendering:geometricPrecision; image-rendering:optimizeQuality; fill-rule:evenodd; clip-rule:evenodd"
viewBox="0 0 795.04 623.22"
 xmlns:xlink="http://www.w3.org/1999/xlink"
 xmlns:xodm="http://www.corel.com/coreldraw/odm/2003">
 <defs>
  <style type="text/css">
   <![CDATA[
    .fil0 {fill:black}
    .fil10 {fill:#48494D}
    .fil11 {fill:#767C86}
    .fil8 {fill:#8D9398}
    .fil9 {fill:#928D93}
    .fil7 {fill:#ACABAF}
    .fil2 {fill:#F4B21A}
    .fil6 {fill:#F6F5F6}
    .fil4 {fill:#FAFAFA}
    .fil5 {fill:#FAFAFD}
    .fil3 {fill:#FDB214}
    .fil1 {fill:#FDFEFF}
   ]]>
  </style>
 </defs>
 <g id="Capa_x0020_1">
  <metadata id="CorelCorpID_0Corel-Layer"/>
  <g id="_2121012923696">
   <path class="fil0" d="M303.63 493.38c-6.47,-28.4 17.02,-35.96 41.63,-35.99l163.05 0.11c28.35,-0.16 53.44,-3.41 57.91,23.83 4.48,27.39 -16.77,34.41 -41.47,34.34l-163.08 -0.17c-27.69,0.1 -52.38,2.68 -58.04,-22.12zm-15.54 -244.78c9.04,11.57 26.04,25.57 26.02,43.54 -0.03,20.3 -47.63,67.75 -58.96,82.11 -14.1,17.85 -48.86,68.04 -70.01,70.16 -20.87,2.09 -37.56,-13.66 -35.44,-35.06 1.53,-15.47 42.64,-58.58 58.08,-79.02 9.92,-13.14 22.01,-23.13 30.67,-38.2 -7.64,-27.52 -89.03,-94.16 -88.97,-123.31 0.03,-20.09 17.09,-34.26 39.16,-29.79 17.09,3.46 56.13,56.69 68.54,72.19 10.63,13.29 20.81,24.46 30.91,37.38zm-280.05 -212.92l-2.38 6.53c-0.78,8.12 1.46,8.01 -5.66,11.13l0 514.49c2.24,2.35 2.4,1.15 4.49,5.54 3.02,6.35 0.98,2.23 2.93,8.9 8.17,15.48 18.09,25.96 35.58,32.16 2.07,0.66 10.83,2.95 11.81,3.37 9.26,3.92 4.52,2.12 7.82,5.42l673.53 0 20.34 -7.11c13.77,-4.36 26.06,-14.53 32.23,-23.19 2.69,-8.27 -2.02,-4.97 6.31,-8.32l0 -553.07c-6.16,-6.05 -10,-12.56 -16.91,-17.95 -6.11,-4.77 -12.23,-7.02 -18,-13.58l-718.32 0c-10.62,15.26 -24.64,13.33 -33.77,35.68z"/>
   <path class="fil1" d="M238.45 292.13c-8.66,15.07 -20.75,25.06 -30.67,38.2 -15.44,20.44 -56.55,63.55 -58.08,79.02 -2.12,21.4 14.57,37.15 35.44,35.06 21.15,-2.12 55.91,-52.31 70.01,-70.16 11.33,-14.36 58.93,-61.81 58.96,-82.11 0.02,-17.97 -16.98,-31.97 -26.02,-43.54 -10.1,-12.92 -20.28,-24.09 -30.91,-37.38 -12.41,-15.5 -51.45,-68.73 -68.54,-72.19 -22.07,-4.47 -39.13,9.7 -39.16,29.79 -0.06,29.15 81.33,95.79 88.97,123.31z"/>
   <path class="fil2" d="M553.49 495.53c-21.93,1.76 -30.79,-4.35 -54.91,-4.27l-161.14 0.94 16.94 13.98 -26.29 -2.15 -9.1 -28.62c41.37,-14.9 143.01,-7 192.62,-8.03 39.4,-0.81 42.83,1.52 41.88,28.15zm-249.86 -2.15c5.66,24.8 30.35,22.22 58.04,22.12l163.08 0.17c24.7,0.07 45.95,-6.95 41.47,-34.34 -4.47,-27.24 -29.56,-23.99 -57.91,-23.83l-163.05 -0.11c-24.61,0.03 -48.1,7.59 -41.63,35.99z"/>
   <path class="fil3" d="M318.99 475.41l9.1 28.62 26.29 2.15 -16.94 -13.98 161.14 -0.94c24.12,-0.08 32.98,6.03 54.91,4.27 0.95,-26.63 -2.48,-28.96 -41.88,-28.15 -49.61,1.03 -151.25,-6.87 -192.62,8.03z"/>
   <path class="fil1" d="M0 623.22l43.26 0 -0.26 -8.79c-17.49,-6.2 -27.41,-16.68 -35.58,-32.16l-7.42 -1.41 0 42.36z"/>
   <path class="fil4" d="M0 36.37l8.04 -0.69c9.13,-22.35 23.15,-20.42 33.77,-35.68l-41.81 0 0 36.37z"/>
   <path class="fil5" d="M756.5 616.11l-1.53 7.11 40.07 0 0 -32.66 -6.31 2.36c-6.17,8.66 -18.46,18.83 -32.23,23.19z"/>
   <path class="fil6" d="M795.04 31.53l0 -31.53 -34.91 0c5.77,6.56 11.89,8.81 18,13.58 6.91,5.39 10.75,11.9 16.91,17.95z"/>
   <path class="fil7" d="M43.26 623.22l19.37 0c-3.3,-3.3 1.44,-1.5 -7.82,-5.42 -0.98,-0.42 -9.74,-2.71 -11.81,-3.37l0.26 8.79z"/>
   <polygon class="fil8" points="736.16,623.22 754.97,623.22 756.5,616.11 "/>
   <path class="fil8" d="M0 580.86l7.42 1.41c-1.95,-6.67 0.09,-2.55 -2.93,-8.9 -2.09,-4.39 -2.25,-3.19 -4.49,-5.54l0 13.03z"/>
   <polygon class="fil9" points="0,45.23 5.66,42.21 8.04,35.68 0,36.37 "/>
   <path class="fil10" d="M0 53.34c7.12,-3.12 4.88,-3.01 5.66,-11.13l-5.66 3.02 0 8.11z"/>
   <path class="fil11" d="M788.73 592.92l6.31 -2.36 0 -5.96c-8.33,3.35 -3.62,0.05 -6.31,8.32z"/>
  </g>
 </g>
</svg>
