<?xml version="1.0" encoding="UTF-8"?>
<!DOCTYPE svg PUBLIC "-//W3C//DTD SVG 1.1//EN" "http://www.w3.org/Graphics/SVG/1.1/DTD/svg11.dtd">
<!-- Creator: CorelDRAW 2020 (64-Bit) -->
<svg xmlns="http://www.w3.org/2000/svg" xml:space="preserve" width="481px" height="412px" version="1.1" style="shape-rendering:geometricPrecision; text-rendering:geometricPrecision; image-rendering:optimizeQuality; fill-rule:evenodd; clip-rule:evenodd"
viewBox="0 0 220.82 189.15"
 xmlns:xlink="http://www.w3.org/1999/xlink"
 xmlns:xodm="http://www.corel.com/coreldraw/odm/2003">
 <defs>
  <style type="text/css">
   <![CDATA[
    .fil0 {fill:black}
   ]]>
  </style>
 </defs>
 <g id="Capa_x0020_1">
  <metadata id="CorelCorpID_0Corel-Layer"/>
  <g id="_2093210898304">
   <path class="fil0" d="M69.26 150.99c0.03,-0.08 0.4,-1.12 0.4,-1.12 0.56,-1.05 0.01,-0.29 0.57,-0.72 0.62,1.26 2.81,7.45 2.8,8.73l-2.8 1.8c-1.1,-0.28 -2.45,-1.37 -3.23,-2.18l2.26 -6.51zm16.04 -34.53c1.16,-0.6 18.83,-0.42 21.3,-0.13 8.98,1.04 8.94,6.19 9.78,11.87l5.57 37.99c0.65,4.29 1.23,5.97 -1.58,8.64 -1.94,1.84 -4.12,2.77 -7.58,3.02 -6.79,0.48 -14.74,0 -21.7,0.07 -7.23,0.08 -14.54,0.01 -21.78,0.01 -6.45,0 -40.13,0.41 -43.57,-0.17 -10.45,-1.75 -8.48,-7.9 -7.89,-12.59 1.61,-12.71 3.97,-25.23 5.58,-37.94 0.51,-3.98 0.47,-6 2.87,-8.15 4.73,-4.24 16.31,-2.77 24.31,-2.86 2.56,-0.02 2.57,-0.28 3.95,1.13 1.73,1.77 3.65,3.64 5.55,5.49 1.82,1.77 3.65,3.81 5.51,5.13 -0.24,1.53 -5.13,14.7 -6.07,17.31 -0.88,2.47 -5.78,15.77 -5.86,17.16l16.24 10.38c0.73,0.08 10.08,-6.3 12.42,-7.8 1.47,-0.94 2.6,-1.88 4.13,-2.57 -0.01,-1.58 -5.04,-14.75 -5.94,-17.4 -1,-2.95 -2.02,-5.64 -3.06,-8.59 -0.51,-1.42 -0.99,-2.8 -1.55,-4.29 -0.32,-0.85 -0.52,-1.52 -0.77,-2.29 -0.13,-0.39 -0.23,-0.67 -0.38,-1.13 -0.18,-0.55 -0.15,-0.3 -0.3,-1l10.82 -11.29zm-85.3 65.75l0 2.44c0.45,0.58 0.44,0.98 0.89,1.69 2.46,3.88 8.11,2.61 14.44,2.61l58.89 0.01c5.32,0.01 134.81,0.44 136.99,-0.24 5.66,-1.78 4.99,-9.99 -0.8,-10.78 -2.49,-0.35 -7.11,-0.02 -9.83,-0.01 -9.96,0.03 -67.83,0.24 -68.33,-0.21 -0.41,-0.37 0.51,-2.11 0.83,-3.36 0.31,-1.17 0.62,-2.68 0.56,-3.96l-3.53 -24.57c-0.76,-5.38 -1.81,-10.97 -2.46,-16.29 -0.72,-5.9 -0.93,-10.58 -3.77,-14.94 -2.11,-3.25 -6.04,-6.65 -10.89,-8.14 -6.13,-1.88 -19.34,-1.28 -26.81,-1.28 -5.09,0.01 -4.4,-0.73 -7.21,1.87 -2.3,2.12 -7.7,8.32 -9.35,9.38 -0.65,-0.46 -0.8,-0.67 -1.3,-1.15l-3.57 -3.51c-8.08,-6.94 -3.95,-6.58 -12,-6.59 -3.06,0 -6.13,0 -9.2,0.01 -11.11,0 -21.17,-0.59 -27.86,9.43 -2.99,4.49 -2.8,8.88 -3.79,14.87 -1.79,10.81 -3.01,21.83 -4.82,32.7 -2.45,14.71 0.56,11.82 0.46,15.7 -5.31,0.17 -5.2,0.36 -7.54,4.32z"/>
   <path class="fil0" d="M136.02 37.44c0.27,-0.65 1.35,-1.99 1.84,-2.78 3.72,-5.9 3.93,-2.99 4.02,-10.57 0.08,-6.25 3.04,-10.19 7.56,-11.9 4.05,-1.53 31.36,-0.87 37.65,-0.87 5.4,0.01 13.5,-0.73 17.28,1.93 4.71,3.31 5.38,6.28 5.38,13.9 0,5.88 0.4,54.73 -0.17,58.12 -0.82,4.85 -4.81,8.78 -9.89,9.45 -3.99,0.53 -31.88,0.17 -38.37,0.17 -7.14,0 -17.61,0.79 -19.25,-9.83 -0.83,-5.39 0.42,-39.22 -0.25,-48.07l-5.8 0.45zm84.8 48.82l0 -66.69c-0.65,-0.72 -0.74,-2.61 -1.33,-4.28 -3.61,-10.18 -12.57,-15.02 -23.81,-15 -7.47,0.01 -14.93,0 -22.39,0.01 -14.17,0.03 -27.63,-2.69 -36.62,7.72 -5.51,6.37 -5.25,9.6 -5.8,16.65 -0.12,1.45 -7.57,11.62 -8.88,13.45 -1.54,2.14 -3.04,4.31 -4.57,6.47 -1.11,1.56 -4.22,5.48 -4.65,6.9 2.7,-0.21 16.72,-2.53 17.8,-1.88 0.95,0.92 -0.87,32.99 1.25,40.18 1.03,3.52 2.56,5.87 4.64,8.23 5.66,6.45 11.03,7.91 20.88,7.95 6.84,0.03 13.7,0.01 20.55,0 6.77,0 14.12,0.26 20.83,-0.06 7.19,-0.35 10.67,-2.68 14.82,-5.99 5.83,-4.66 6.7,-13.15 7.28,-13.66z"/>
   <path class="fil0" d="M46.01 48.88c0.82,0.36 2.39,1.78 3.32,2.55 3.43,2.83 7.88,4.29 12.03,5.76 6.03,2.15 12.68,2.86 19.05,4.58 11.48,3.08 15.09,12.24 13.65,14.96 -0.45,0.85 -1.8,2.72 -2.38,3.47 -5.51,7.07 -14.63,11.48 -24.69,10.58 -11.9,-1.08 -22.83,-10.97 -24.57,-22.61 -0.63,-4.2 -0.74,-6.49 0.12,-10.75 0.54,-2.66 2.09,-6.98 3.47,-8.54zm7.63 -8.15c1.17,-2.4 9.78,-4.98 12.82,-5.35 5.51,-0.67 10.67,0.24 14.98,2.35 7.58,3.71 13.7,10.37 15.76,20.19 -0.92,-0.23 -2.84,-1.83 -4.93,-2.8 -1.8,-0.84 -3.59,-1.53 -5.56,-2.12 -3.96,-1.19 -7.78,-2.06 -11.99,-3.04 -10.49,-2.43 -13.13,-3.19 -21.08,-9.23zm11.56 -16.37c-12.45,2.08 -19.14,6.61 -25.21,13.66 -5.84,6.77 -10.39,17.51 -8.82,29.8 2.72,21.37 22.37,36.73 43.3,33.82 12.2,-1.69 19.72,-7.36 25.15,-13.53 9.86,-11.2 12.46,-29.51 4.03,-44.37 -1.17,-2.07 -2.54,-4.04 -3.99,-5.83 -4.19,-5.15 -10.84,-9.39 -17.38,-11.76 -4.76,-1.73 -11.71,-2.68 -17.08,-1.79z"/>
   <path class="fil0" d="M147.41 40.22c-0.6,1.44 -0.23,12.5 -0.22,14.84 0,3.06 -0.03,4.18 3.63,3 0.46,-8.81 -0.99,-7.92 4.06,-7.92 3.97,0 3.19,-0.44 3.21,6.15 0.01,2.57 1.33,2.42 3.61,1.89 0.38,-1.06 0.45,-17.27 -0.05,-17.83 -0.99,-0.72 -2.07,-0.5 -3.37,-0.28l-0.32 6.61c-1.59,0.44 -3.37,0.26 -4.94,0.24 -4.23,-0.03 -0.98,-3.03 -2.32,-6.68 -0.77,-0.34 -2.16,-0.44 -3.29,-0.02z"/>
   <path class="fil0" d="M168.32 49.91c-0.24,-0.75 0.3,-1.79 0.98,-2.2 1.96,-1.18 5.12,0.57 4.38,1.97 -0.47,0.88 -4.72,0.51 -5.36,0.23zm3.13 2.6c1.73,0 4.73,0.18 6.06,-0.26 1.62,-9.09 -11.58,-10.76 -13.05,-2.66 -2.24,12.29 13.1,10.21 12.72,4.94 -3.65,-1.08 -3.47,1.05 -5.54,1.3 -2.01,0.24 -3.88,-1.1 -3.47,-3.21l3.28 -0.11z"/>
   <path class="fil0" d="M196.7 53.22c-1.6,-6.61 5.07,-7.48 5.95,-3.3 1.39,6.62 -4.96,7.41 -5.95,3.3zm1.1 -8.72c-8.15,1.91 -6.25,16.59 4.08,14.02 3.76,-0.94 5.38,-5.19 4.52,-8.89 -0.87,-3.72 -4.09,-6.19 -8.6,-5.13z"/>
   <path class="fil0" d="M186.8 58.1c1.06,0.31 2.1,0.29 3.22,-0.11 0.36,-1.44 0.16,-12.76 0.17,-15.83 0,-2.52 -0.69,-2.55 -3.32,-2.02 -0.49,1.48 -0.49,16.63 -0.07,17.96z"/>
   <path class="fil0" d="M179.5 52.61l0.07 5.56 3.3 0.11c0.37,-1.92 0.36,-16.49 0.01,-18.28l-3.16 -0.03c-0.54,3 -0.21,9.23 -0.22,12.64z"/>
  </g>
 </g>
</svg>
